<svg xmlns="http://www.w3.org/2000/svg" xmlns:svg="http://www.w3.org/2000/svg" xmlns:xlink="http://www.w3.org/1999/xlink" id="svg1901" width="72" height="72" version="1.1" style="display:inline"><defs id="defs1903"><linearGradient id="linearGradient5537"><stop style="stop-color:#fff;stop-opacity:1" id="stop5539" offset="0"/><stop style="stop-color:#fff;stop-opacity:0" id="stop5541" offset="1"/></linearGradient><linearGradient id="linearGradient5525"><stop style="stop-color:#fff;stop-opacity:1" id="stop5527" offset="0"/><stop style="stop-color:#fff;stop-opacity:0" id="stop5529" offset="1"/></linearGradient><linearGradient id="linearGradient5399"><stop style="stop-color:#fff;stop-opacity:1" id="stop5401" offset="0"/><stop id="stop5403" offset=".655" style="stop-color:#fff;stop-opacity:0"/><stop style="stop-color:#fff;stop-opacity:.35294119" id="stop5405" offset="1"/></linearGradient><linearGradient id="linearGradient3945"><stop id="stop3947" offset="0" style="stop-color:#fff;stop-opacity:0"/><stop style="stop-color:#fff;stop-opacity:.31550801" id="stop3949" offset=".783"/><stop style="stop-color:#fff;stop-opacity:1" id="stop3951" offset="1"/></linearGradient><linearGradient id="linearGradient3686"><stop style="stop-color:#fff;stop-opacity:0" id="stop3688" offset="0"/><stop id="stop3953" offset=".71" style="stop-color:#fff;stop-opacity:.19786096"/><stop id="stop3690" offset=".86" style="stop-color:#fff;stop-opacity:.49803922"/><stop id="stop3692" offset="1" style="stop-color:#fff;stop-opacity:1"/></linearGradient><linearGradient id="linearGradient3647"><stop id="stop3649" offset="0" style="stop-color:#fff;stop-opacity:0"/><stop style="stop-color:#fff;stop-opacity:.342246" id="stop3684" offset=".683"/><stop style="stop-color:#fff;stop-opacity:.7326203" id="stop3651" offset="1"/></linearGradient><linearGradient id="linearGradient3637"><stop id="stop3639" offset="0" style="stop-color:#fff;stop-opacity:.56684494"/><stop style="stop-color:#fff;stop-opacity:.66844922" id="stop3641" offset=".655"/><stop id="stop3643" offset="1" style="stop-color:#fff;stop-opacity:0"/></linearGradient><linearGradient id="linearGradient3611"><stop id="stop3613" offset="0" style="stop-color:#fff;stop-opacity:1"/><stop style="stop-color:#fff;stop-opacity:.49803922" id="stop3617" offset=".655"/><stop id="stop3615" offset="1" style="stop-color:#fff;stop-opacity:0"/></linearGradient><linearGradient id="linearGradient3589"><stop style="stop-color:#fff;stop-opacity:1" id="stop3591" offset="0"/><stop style="stop-color:#fff;stop-opacity:0" id="stop3593" offset="1"/></linearGradient><linearGradient id="linearGradient3611-5"><stop id="stop3613-4" offset="0" style="stop-color:#fff;stop-opacity:1"/><stop style="stop-color:#fff;stop-opacity:.49803922" id="stop3617-6" offset=".655"/><stop id="stop3615-6" offset="1" style="stop-color:#fff;stop-opacity:0"/></linearGradient><linearGradient id="linearGradient3611-1"><stop id="stop3613-6" offset="0" style="stop-color:#fff;stop-opacity:1"/><stop style="stop-color:#fff;stop-opacity:.49803922" id="stop3617-0" offset=".655"/><stop id="stop3615-9" offset="1" style="stop-color:#fff;stop-opacity:0"/></linearGradient><linearGradient id="linearGradient3611-1-3"><stop id="stop3613-6-8" offset="0" style="stop-color:#fff;stop-opacity:1"/><stop style="stop-color:#fff;stop-opacity:.49803922" id="stop3617-0-5" offset=".655"/><stop id="stop3615-9-0" offset="1" style="stop-color:#fff;stop-opacity:0"/></linearGradient><linearGradient id="linearGradient3611-1-3-7"><stop id="stop3613-6-8-6" offset="0" style="stop-color:#fff;stop-opacity:1"/><stop style="stop-color:#fff;stop-opacity:.49803922" id="stop3617-0-5-5" offset=".655"/><stop id="stop3615-9-0-8" offset="1" style="stop-color:#fff;stop-opacity:0"/></linearGradient><linearGradient id="linearGradient3589-9"><stop style="stop-color:#fff;stop-opacity:1" id="stop3591-6" offset="0"/><stop style="stop-color:#fff;stop-opacity:0" id="stop3593-0" offset="1"/></linearGradient><linearGradient id="linearGradient3589-0"><stop style="stop-color:#fff;stop-opacity:1" id="stop3591-0" offset="0"/><stop style="stop-color:#fff;stop-opacity:0" id="stop3593-2" offset="1"/></linearGradient><linearGradient id="linearGradient3589-9-3"><stop style="stop-color:#fff;stop-opacity:1" id="stop3591-6-6" offset="0"/><stop style="stop-color:#fff;stop-opacity:0" id="stop3593-0-5" offset="1"/></linearGradient><linearGradient id="linearGradient3589-0-9"><stop style="stop-color:#fff;stop-opacity:1" id="stop3591-0-6" offset="0"/><stop style="stop-color:#fff;stop-opacity:0" id="stop3593-2-5" offset="1"/></linearGradient><linearGradient id="linearGradient3589-9-3-9"><stop style="stop-color:#fff;stop-opacity:1" id="stop3591-6-6-4" offset="0"/><stop style="stop-color:#fff;stop-opacity:0" id="stop3593-0-5-8" offset="1"/></linearGradient><linearGradient id="linearGradient3589-0-9-4"><stop style="stop-color:#fff;stop-opacity:1" id="stop3591-0-6-5" offset="0"/><stop style="stop-color:#fff;stop-opacity:0" id="stop3593-2-5-8" offset="1"/></linearGradient><linearGradient id="linearGradient3589-9-3-9-6"><stop style="stop-color:#fff;stop-opacity:1" id="stop3591-6-6-4-3" offset="0"/><stop style="stop-color:#fff;stop-opacity:0" id="stop3593-0-5-8-4" offset="1"/></linearGradient><linearGradient id="linearGradient3589-0-9-4-8"><stop style="stop-color:#fff;stop-opacity:1" id="stop3591-0-6-5-6" offset="0"/><stop style="stop-color:#fff;stop-opacity:0" id="stop3593-2-5-8-5" offset="1"/></linearGradient><linearGradient id="linearGradient3589-9-3-9-6-1"><stop style="stop-color:#fff;stop-opacity:1" id="stop3591-6-6-4-3-4" offset="0"/><stop style="stop-color:#fff;stop-opacity:0" id="stop3593-0-5-8-4-3" offset="1"/></linearGradient><linearGradient id="linearGradient3589-0-9-4-8-7"><stop style="stop-color:#fff;stop-opacity:1" id="stop3591-0-6-5-6-3" offset="0"/><stop style="stop-color:#fff;stop-opacity:0" id="stop3593-2-5-8-5-9" offset="1"/></linearGradient><linearGradient id="linearGradient3589-9-3-9-6-1-6"><stop style="stop-color:#fff;stop-opacity:1" id="stop3591-6-6-4-3-4-7" offset="0"/><stop style="stop-color:#fff;stop-opacity:0" id="stop3593-0-5-8-4-3-8" offset="1"/></linearGradient><linearGradient id="linearGradient3589-0-9-4-8-7-5"><stop style="stop-color:#fff;stop-opacity:1" id="stop3591-0-6-5-6-3-9" offset="0"/><stop style="stop-color:#fff;stop-opacity:0" id="stop3593-2-5-8-5-9-3" offset="1"/></linearGradient><linearGradient id="linearGradient3686-0"><stop style="stop-color:#fff;stop-opacity:0" id="stop3688-0" offset="0"/><stop id="stop3953-7" offset=".71" style="stop-color:#fff;stop-opacity:.19786096"/><stop id="stop3690-0" offset=".86" style="stop-color:#fff;stop-opacity:.49803922"/><stop id="stop3692-1" offset="1" style="stop-color:#fff;stop-opacity:1"/></linearGradient><linearGradient id="linearGradient5537-3"><stop style="stop-color:#fff;stop-opacity:1" id="stop5539-4" offset="0"/><stop style="stop-color:#fff;stop-opacity:0" id="stop5541-7" offset="1"/></linearGradient><linearGradient id="linearGradient5537-0"><stop style="stop-color:#fff;stop-opacity:1" id="stop5539-5" offset="0"/><stop style="stop-color:#fff;stop-opacity:0" id="stop5541-0" offset="1"/></linearGradient><linearGradient id="linearGradient5537-5"><stop style="stop-color:#fff;stop-opacity:1" id="stop5539-57" offset="0"/><stop style="stop-color:#fff;stop-opacity:0" id="stop5541-8" offset="1"/></linearGradient><linearGradient id="linearGradient5537-6"><stop style="stop-color:#fff;stop-opacity:1" id="stop5539-3" offset="0"/><stop style="stop-color:#fff;stop-opacity:0" id="stop5541-1" offset="1"/></linearGradient><radialGradient id="radialGradient3364" cx="36.681" cy="36.291" r="1.414" fx="36.681" fy="36.291" gradientUnits="userSpaceOnUse" xlink:href="#linearGradient5537-6"/><radialGradient id="radialGradient3366" cx="27.975" cy="36.247" r="4.464" fx="27.975" fy="36.247" gradientTransform="matrix(1,0,0,0.14851485,0,30.863709)" gradientUnits="userSpaceOnUse" xlink:href="#linearGradient5525"/><radialGradient id="radialGradient3368" cx="27.975" cy="36.247" r="4.464" fx="27.975" fy="36.247" gradientTransform="matrix(1,0,0,0.14851485,0,30.863709)" gradientUnits="userSpaceOnUse" xlink:href="#linearGradient5525"/><radialGradient id="radialGradient3370" cx="36.681" cy="36.291" r="1.414" fx="36.681" fy="36.291" gradientUnits="userSpaceOnUse" xlink:href="#linearGradient5537"/><radialGradient id="radialGradient3372" cx="36.681" cy="36.291" r="1.414" fx="36.681" fy="36.291" gradientUnits="userSpaceOnUse" xlink:href="#linearGradient5537"/><radialGradient id="radialGradient3374" cx="36.681" cy="36.291" r="1.414" fx="36.681" fy="36.291" gradientUnits="userSpaceOnUse" xlink:href="#linearGradient5537-5"/><radialGradient id="radialGradient3376" cx="27.975" cy="36.247" r="4.464" fx="27.975" fy="36.247" gradientTransform="matrix(1,0,0,0.14851485,0,30.863709)" gradientUnits="userSpaceOnUse" xlink:href="#linearGradient5525"/><radialGradient id="radialGradient3378" cx="27.975" cy="36.247" r="4.464" fx="27.975" fy="36.247" gradientTransform="matrix(1,0,0,0.14851485,0,30.863709)" gradientUnits="userSpaceOnUse" xlink:href="#linearGradient5525"/><radialGradient id="radialGradient3380" cx="36.681" cy="36.291" r="1.414" fx="36.681" fy="36.291" gradientUnits="userSpaceOnUse" xlink:href="#linearGradient5537"/><radialGradient id="radialGradient3382" cx="36.681" cy="36.291" r="1.414" fx="36.681" fy="36.291" gradientUnits="userSpaceOnUse" xlink:href="#linearGradient5537"/><radialGradient id="radialGradient3384" cx="36.681" cy="36.291" r="1.414" fx="36.681" fy="36.291" gradientUnits="userSpaceOnUse" xlink:href="#linearGradient5537-0"/><radialGradient id="radialGradient3386" cx="27.975" cy="36.247" r="4.464" fx="27.975" fy="36.247" gradientTransform="matrix(1,0,0,0.14851485,0,30.863709)" gradientUnits="userSpaceOnUse" xlink:href="#linearGradient5525"/><radialGradient id="radialGradient3388" cx="27.975" cy="36.247" r="4.464" fx="27.975" fy="36.247" gradientTransform="matrix(1,0,0,0.14851485,0,30.863709)" gradientUnits="userSpaceOnUse" xlink:href="#linearGradient5525"/><radialGradient id="radialGradient3390" cx="36.681" cy="36.291" r="1.414" fx="36.681" fy="36.291" gradientUnits="userSpaceOnUse" xlink:href="#linearGradient5537"/><radialGradient id="radialGradient3392" cx="36.681" cy="36.291" r="1.414" fx="36.681" fy="36.291" gradientUnits="userSpaceOnUse" xlink:href="#linearGradient5537"/><radialGradient id="radialGradient3394" cx="36.681" cy="36.291" r="1.414" fx="36.681" fy="36.291" gradientUnits="userSpaceOnUse" xlink:href="#linearGradient5537-3"/><radialGradient id="radialGradient3396" cx="36.681" cy="36.291" r="1.414" fx="36.681" fy="36.291" gradientUnits="userSpaceOnUse" xlink:href="#linearGradient5537"/><radialGradient id="radialGradient3398" cx="36.681" cy="36.291" r="1.414" fx="36.681" fy="36.291" gradientUnits="userSpaceOnUse" xlink:href="#linearGradient5537"/><radialGradient id="radialGradient3400" cx="27.975" cy="36.247" r="4.464" fx="27.975" fy="36.247" gradientTransform="matrix(1,0,0,0.14851485,0,30.863709)" gradientUnits="userSpaceOnUse" xlink:href="#linearGradient5525"/><radialGradient id="radialGradient3402" cx="27.975" cy="36.247" r="4.464" fx="27.975" fy="36.247" gradientTransform="matrix(1,0,0,0.14851485,0,30.863709)" gradientUnits="userSpaceOnUse" xlink:href="#linearGradient5525"/><radialGradient id="radialGradient3404" cx="36.681" cy="36.291" r="1.414" fx="36.681" fy="36.291" gradientUnits="userSpaceOnUse" xlink:href="#linearGradient5537"/><radialGradient id="radialGradient3406" cx="27.975" cy="36.247" r="4.464" fx="27.975" fy="36.247" gradientTransform="matrix(1,0,0,0.14851485,0,30.863709)" gradientUnits="userSpaceOnUse" xlink:href="#linearGradient5525"/><radialGradient id="radialGradient3408" cx="27.975" cy="36.247" r="4.464" fx="27.975" fy="36.247" gradientTransform="matrix(1,0,0,0.14851485,0,30.863709)" gradientUnits="userSpaceOnUse" xlink:href="#linearGradient5525"/><radialGradient id="radialGradient3410" cx="36" cy="35.75" r="3.5" fx="36" fy="35.75" gradientUnits="userSpaceOnUse" xlink:href="#linearGradient3686-0"/><radialGradient id="radialGradient3412" cx="36" cy="35.75" r="3.5" fx="36" fy="35.75" gradientUnits="userSpaceOnUse" xlink:href="#linearGradient3589-0-9-4-8-7-5"/><radialGradient id="radialGradient3414" cx="36" cy="35.75" r="3.5" fx="36" fy="35.75" gradientUnits="userSpaceOnUse" xlink:href="#linearGradient3589-9-3-9-6-1-6"/><radialGradient id="radialGradient3416" cx="36" cy="35.75" r="3.5" fx="36" fy="35.75" gradientUnits="userSpaceOnUse" xlink:href="#linearGradient5399"/><radialGradient id="radialGradient3418" cx="36" cy="35.75" r="3.5" fx="36" fy="35.75" gradientUnits="userSpaceOnUse" xlink:href="#linearGradient3589-0-9-4-8-7"/><radialGradient id="radialGradient3420" cx="36" cy="35.75" r="3.5" fx="36" fy="35.75" gradientUnits="userSpaceOnUse" xlink:href="#linearGradient3589-9-3-9-6-1"/><radialGradient id="radialGradient3422" cx="36" cy="35.75" r="3.5" fx="36" fy="35.75" gradientUnits="userSpaceOnUse" xlink:href="#linearGradient3611-1-3-7"/><radialGradient id="radialGradient3424" cx="36" cy="35.75" r="3.5" fx="36" fy="35.75" gradientUnits="userSpaceOnUse" xlink:href="#linearGradient3686"/><radialGradient id="radialGradient3426" cx="36" cy="35.75" r="3.5" fx="36" fy="35.75" gradientUnits="userSpaceOnUse" xlink:href="#linearGradient3589-0-9-4-8"/><radialGradient id="radialGradient3428" cx="36" cy="35.75" r="3.5" fx="36" fy="35.75" gradientUnits="userSpaceOnUse" xlink:href="#linearGradient3589-9-3-9-6"/><radialGradient id="radialGradient3430" cx="36" cy="35.75" r="3.5" fx="36" fy="35.75" gradientUnits="userSpaceOnUse" xlink:href="#linearGradient3611-1-3"/><radialGradient id="radialGradient3432" cx="36" cy="35.75" r="3.5" fx="36" fy="35.75" gradientUnits="userSpaceOnUse" xlink:href="#linearGradient3945"/><radialGradient id="radialGradient3434" cx="36" cy="35.75" r="3.5" fx="36" fy="35.75" gradientUnits="userSpaceOnUse" xlink:href="#linearGradient3589-0-9-4"/><radialGradient id="radialGradient3436" cx="36" cy="35.75" r="3.5" fx="36" fy="35.75" gradientUnits="userSpaceOnUse" xlink:href="#linearGradient3589-9-3-9"/><radialGradient id="radialGradient3438" cx="36" cy="35.75" r="3.5" fx="36" fy="35.75" gradientUnits="userSpaceOnUse" xlink:href="#linearGradient3611-1"/><radialGradient id="radialGradient3440" cx="36" cy="35.75" r="3.5" fx="36" fy="35.75" gradientUnits="userSpaceOnUse" xlink:href="#linearGradient3647"/><radialGradient id="radialGradient3442" cx="36" cy="35.75" r="3.5" fx="36" fy="35.75" gradientUnits="userSpaceOnUse" xlink:href="#linearGradient3589-0-9"/><radialGradient id="radialGradient3444" cx="36" cy="35.75" r="3.5" fx="36" fy="35.75" gradientUnits="userSpaceOnUse" xlink:href="#linearGradient3589-9-3"/><radialGradient id="radialGradient3446" cx="36" cy="35.75" r="3.5" fx="36" fy="35.75" gradientUnits="userSpaceOnUse" xlink:href="#linearGradient3611-5"/><radialGradient id="radialGradient3448" cx="36" cy="35.75" r="3.5" fx="36" fy="35.75" gradientUnits="userSpaceOnUse" xlink:href="#linearGradient3637"/><radialGradient id="radialGradient3450" cx="36" cy="35.75" r="3.5" fx="36" fy="35.75" gradientUnits="userSpaceOnUse" xlink:href="#linearGradient3589-0"/><radialGradient id="radialGradient3452" cx="36" cy="35.75" r="3.5" fx="36" fy="35.75" gradientUnits="userSpaceOnUse" xlink:href="#linearGradient3589-9"/><radialGradient id="radialGradient3454" cx="36" cy="35.75" r="3.5" fx="36" fy="35.75" gradientUnits="userSpaceOnUse" xlink:href="#linearGradient3611"/><radialGradient id="radialGradient3456" cx="36" cy="35.75" r="3.5" fx="36" fy="35.75" gradientUnits="userSpaceOnUse" xlink:href="#linearGradient3589"/><radialGradient id="radialGradient3458" cx="36" cy="35.75" r="3.5" fx="36" fy="35.75" gradientUnits="userSpaceOnUse" xlink:href="#linearGradient3589"/><radialGradient id="radialGradient3460" cx="36" cy="35.75" r="3.5" fx="36" fy="35.75" gradientUnits="userSpaceOnUse" xlink:href="#linearGradient3589"/></defs><metadata id="metadata1906"/><g id="layer1" transform="translate(0,-980.36218)" style="display:none"><path style="color:#000;fill:url(#radialGradient3460);fill-opacity:1;fill-rule:evenodd;stroke:none;stroke-width:3;marker:none;visibility:visible;display:inline;overflow:visible;enable-background:accumulate" id="path3587" d="m 39.5,35.75 a 3.5,3.5 0 1 1 -7,0 3.5,3.5 0 1 1 7,0 z" transform="matrix(0.5,0,0,0.5,18,998.48718)"/></g><g id="g3597" transform="translate(0,-980.36218)" style="display:none"><path id="path3599" d="m 39.5,35.75 a 3.5,3.5 0 1 1 -7,0 3.5,3.5 0 1 1 7,0 z" transform="matrix(0.6993396,0.27096889,-0.27096889,0.6993396,20.510908,981.60591)" style="color:#000;fill:url(#radialGradient3458);fill-opacity:1;fill-rule:evenodd;stroke:none;stroke-width:3;marker:none;visibility:visible;display:inline;overflow:visible;enable-background:accumulate"/><path id="path5034" d="m 39.5,35.75 a 3.5,3.5 0 1 1 -7,0 3.5,3.5 0 1 1 7,0 z" transform="matrix(-0.21250876,0.09381812,-1.8327992,-4.1514991,109.17289,1161.4008)" style="color:#000;fill:url(#radialGradient3456);fill-opacity:1;fill-rule:evenodd;stroke:none;stroke-width:3;marker:none;visibility:visible;display:inline;overflow:visible;enable-background:accumulate"/></g><g style="display:none" id="g3605" transform="translate(0,-980.36218)"><path style="color:#000;fill:url(#radialGradient3454);fill-opacity:1;fill-rule:evenodd;stroke:none;stroke-width:3;marker:none;visibility:visible;display:inline;overflow:visible;enable-background:accumulate" id="path3607" d="m 39.5,35.75 a 3.5,3.5 0 1 1 -7,0 3.5,3.5 0 1 1 7,0 z" transform="matrix(0.9430928,0.27419065,-0.27419065,0.9430928,11.850959,972.77575)"/><path id="path5034-0" d="m 39.5,35.75 a 3.5,3.5 0 1 1 -7,0 3.5,3.5 0 1 1 7,0 z" transform="matrix(-0.23723093,0.13035935,-2.5466561,-4.634463,135.58327,1177.3513)" style="color:#000;fill:url(#radialGradient3452);fill-opacity:1;fill-rule:evenodd;stroke:none;stroke-width:3;marker:none;visibility:visible;display:inline;overflow:visible;enable-background:accumulate"/><path style="color:#000;fill:url(#radialGradient3450);fill-opacity:1;fill-rule:evenodd;stroke:none;stroke-width:3;marker:none;visibility:visible;display:inline;overflow:visible;enable-background:accumulate" id="path5030" d="m 39.5,35.75 a 3.5,3.5 0 1 1 -7,0 3.5,3.5 0 1 1 7,0 z" transform="matrix(0.11187066,0.20358479,-2.9701382,1.6321029,138.15508,950.68545)"/></g><g id="g3619" transform="translate(0,-980.36218)" style="display:none"><path id="path3621" d="m 39.5,35.75 a 3.5,3.5 0 1 1 -7,0 3.5,3.5 0 1 1 7,0 z" transform="matrix(1.2464727,0.23187837,-0.23187837,1.2464727,-0.58337735,963.45317)" style="color:#000;fill:url(#radialGradient3448);fill-opacity:1;fill-rule:evenodd;stroke:none;stroke-width:3;marker:none;visibility:visible;display:inline;overflow:visible;enable-background:accumulate"/><path style="color:#000;fill:url(#radialGradient3446);fill-opacity:1;fill-rule:evenodd;stroke:none;stroke-width:3;marker:none;visibility:visible;display:inline;overflow:visible;enable-background:accumulate" id="path3607-3" d="m 39.5,35.75 a 3.5,3.5 0 1 1 -7,0 3.5,3.5 0 1 1 7,0 z" transform="matrix(0.96557745,0.17962408,-0.17962408,0.96557745,7.6607622,975.37632)"/><path id="path5034-0-2" d="m 39.5,35.75 a 3.5,3.5 0 1 1 -7,0 3.5,3.5 0 1 1 7,0 z" transform="matrix(-0.2572446,0.17654732,-3.4489686,-5.0254435,168.56143,1189.666)" style="color:#000;fill:url(#radialGradient3444);fill-opacity:1;fill-rule:evenodd;stroke:none;stroke-width:3;marker:none;visibility:visible;display:inline;overflow:visible;enable-background:accumulate"/><path style="color:#000;fill:url(#radialGradient3442);fill-opacity:1;fill-rule:evenodd;stroke:none;stroke-width:3;marker:none;visibility:visible;display:inline;overflow:visible;enable-background:accumulate" id="path5030-7" d="m 39.5,35.75 a 3.5,3.5 0 1 1 -7,0 3.5,3.5 0 1 1 7,0 z" transform="matrix(0.15150785,0.22075995,-3.22071,2.2103776,145.68609,929.39379)"/></g><g style="display:none" id="g3633" transform="translate(0,-980.36218)"><path style="color:#000;fill:url(#radialGradient3440);fill-opacity:1;fill-rule:evenodd;stroke:none;stroke-width:3;marker:none;visibility:visible;display:inline;overflow:visible;enable-background:accumulate" id="path3635" d="m 39.5,35.75 a 3.5,3.5 0 1 1 -7,0 3.5,3.5 0 1 1 7,0 z" transform="matrix(1.4401832,0.13426815,-0.13426815,1.4401832,-11.046513,960.04198)"/><path style="color:#000;fill:url(#radialGradient3438);fill-opacity:1;fill-rule:evenodd;stroke:none;stroke-width:3;marker:none;visibility:visible;display:inline;overflow:visible;enable-background:accumulate" id="path3607-9" d="m 39.5,35.75 a 3.5,3.5 0 1 1 -7,0 3.5,3.5 0 1 1 7,0 z" transform="matrix(0.75159925,0.07007153,-0.07007153,0.75159925,11.447482,986.96994)"/><path id="path5034-0-2-1" d="m 39.5,35.75 a 3.5,3.5 0 1 1 -7,0 3.5,3.5 0 1 1 7,0 z" transform="matrix(-0.25802961,0.21402042,-4.1810306,-5.040779,194.76091,1188.8653)" style="color:#000;fill:url(#radialGradient3436);fill-opacity:1;fill-rule:evenodd;stroke:none;stroke-width:3;marker:none;visibility:visible;display:inline;overflow:visible;enable-background:accumulate"/><path style="color:#000;fill:url(#radialGradient3434);fill-opacity:1;fill-rule:evenodd;stroke:none;stroke-width:3;marker:none;visibility:visible;display:inline;overflow:visible;enable-background:accumulate" id="path5030-7-6" d="m 39.5,35.75 a 3.5,3.5 0 1 1 -7,0 3.5,3.5 0 1 1 7,0 z" transform="matrix(0.1836662,0.22143362,-3.2305383,2.679542,144.87977,912.59689)"/></g><g id="g3676" transform="translate(0,-980.36218)" style="display:none"><path id="path3678" d="m 39.5,35.75 a 3.5,3.5 0 1 1 -7,0 3.5,3.5 0 1 1 7,0 z" transform="matrix(1.7321429,0,0,1.7321429,-26.357143,954.43808)" style="opacity:.75977652;color:#000;fill:url(#radialGradient3432);fill-opacity:1;fill-rule:evenodd;stroke:none;stroke-width:3;marker:none;visibility:visible;display:inline;overflow:visible;enable-background:accumulate"/><path style="color:#000;fill:url(#radialGradient3430);fill-opacity:1;fill-rule:evenodd;stroke:none;stroke-width:3;marker:none;visibility:visible;display:inline;overflow:visible;enable-background:accumulate" id="path3607-9-5" d="m 39.5,35.75 a 3.5,3.5 0 1 1 -7,0 3.5,3.5 0 1 1 7,0 z" transform="matrix(0.67909715,0,0,0.67909715,11.552506,992.08447)"/><path id="path5034-0-2-1-1" d="m 39.5,35.75 a 3.5,3.5 0 1 1 -7,0 3.5,3.5 0 1 1 7,0 z" transform="matrix(-0.21513984,0.21513984,-4.2028992,-4.2028992,193.99868,1158.8708)" style="color:#000;fill:url(#radialGradient3428);fill-opacity:1;fill-rule:evenodd;stroke:none;stroke-width:3;marker:none;visibility:visible;display:inline;overflow:visible;enable-background:accumulate"/><path style="color:#000;fill:url(#radialGradient3426);fill-opacity:1;fill-rule:evenodd;stroke:none;stroke-width:3;marker:none;visibility:visible;display:inline;overflow:visible;enable-background:accumulate" id="path5030-7-6-7" d="m 39.5,35.75 a 3.5,3.5 0 1 1 -7,0 3.5,3.5 0 1 1 7,0 z" transform="matrix(0.18462686,0.18462686,-2.6935573,2.6935573,125.64811,913.42085)"/></g><g style="display:none" id="g3757" transform="translate(0,-980.36218)"><path style="opacity:.41061455;color:#000;fill:url(#radialGradient3424);fill-opacity:1;fill-rule:evenodd;stroke:none;stroke-width:3;marker:none;visibility:visible;display:inline;overflow:visible;enable-background:accumulate" id="path3759" d="m 39.5,35.75 a 3.5,3.5 0 1 1 -7,0 3.5,3.5 0 1 1 7,0 z" transform="matrix(2.0648845,-0.16452548,0.16452548,2.0648845,-44.217624,948.46548)"/><path style="opacity:.72346371;color:#000;fill:url(#radialGradient3422);fill-opacity:1;fill-rule:evenodd;stroke:none;stroke-width:3;marker:none;visibility:visible;display:inline;overflow:visible;enable-background:accumulate" id="path3607-9-5-1" d="m 39.5,35.75 a 3.5,3.5 0 1 1 -7,0 3.5,3.5 0 1 1 7,0 z" transform="matrix(0.6769517,-0.05393803,0.05393803,0.6769517,9.7014558,994.10294)"/><path id="path5034-0-2-1-1-8" d="m 39.5,35.75 a 3.5,3.5 0 1 1 -7,0 3.5,3.5 0 1 1 7,0 z" transform="matrix(-0.16889836,0.19814344,-3.8708633,-3.2995412,180.4637,1127.1877)" style="color:#000;fill:url(#radialGradient3420);fill-opacity:1;fill-rule:evenodd;stroke:none;stroke-width:3;marker:none;visibility:visible;display:inline;overflow:visible;enable-background:accumulate"/><path style="color:#000;fill:url(#radialGradient3418);fill-opacity:1;fill-rule:evenodd;stroke:none;stroke-width:3;marker:none;visibility:visible;display:inline;overflow:visible;enable-background:accumulate" id="path5030-7-6-7-1" d="m 39.5,35.75 a 3.5,3.5 0 1 1 -7,0 3.5,3.5 0 1 1 7,0 z" transform="matrix(0.17004103,0.14494373,-2.1146125,2.4807619,105.47591,922.45691)"/></g><g id="g5024" transform="translate(0,-980.36218)" style="display:none"><path id="path5028" d="m 39.5,35.75 a 3.5,3.5 0 1 1 -7,0 3.5,3.5 0 1 1 7,0 z" transform="matrix(0.8134532,-0.16799881,0.16799881,0.8134532,0.70973548,993.32919)" style="opacity:.56145253;color:#000;fill:url(#radialGradient3416);fill-opacity:1;fill-rule:evenodd;stroke:none;stroke-width:3;marker:none;visibility:visible;display:inline;overflow:visible;enable-background:accumulate"/><path id="path5034-0-2-1-1-8-9" d="m 39.5,35.75 a 3.5,3.5 0 1 1 -7,0 3.5,3.5 0 1 1 7,0 z" transform="matrix(-0.10049977,0.1528159,-2.9853599,-1.9633295,146.3446,1081.0498)" style="color:#000;fill:url(#radialGradient3414);fill-opacity:1;fill-rule:evenodd;stroke:none;stroke-width:3;marker:none;visibility:visible;display:inline;overflow:visible;enable-background:accumulate"/><path style="color:#000;fill:url(#radialGradient3412);fill-opacity:1;fill-rule:evenodd;stroke:none;stroke-width:3;marker:none;visibility:visible;display:inline;overflow:visible;enable-background:accumulate" id="path5030-7-6-7-1-8" d="m 39.5,35.75 a 3.5,3.5 0 1 1 -7,0 3.5,3.5 0 1 1 7,0 z" transform="matrix(0.13114223,0.08624602,-1.25826,1.9132597,76.261664,944.85824)"/><path style="opacity:.27653635;color:#000;fill:url(#radialGradient3410);fill-opacity:1;fill-rule:evenodd;stroke:none;stroke-width:3;marker:none;visibility:visible;display:inline;overflow:visible;enable-background:accumulate" id="path3759-3" d="m 39.5,35.75 a 3.5,3.5 0 1 1 -7,0 3.5,3.5 0 1 1 7,0 z" transform="matrix(2.4861571,-0.51345475,0.51345475,2.4861571,-71.857659,945.96644)"/></g><g id="layer2" style="display:none"><path style="color:#000;fill:url(#radialGradient3408);fill-opacity:1;fill-rule:evenodd;stroke:none;stroke-width:3;marker:none;visibility:visible;display:inline;overflow:visible;enable-background:accumulate" id="path5515" d="m 32.438524,36.246914 a 4.4636116,0.66291261 0 1 1 -8.927223,0 4.4636116,0.66291261 0 1 1 8.927223,0 z" transform="matrix(0.34895017,0.09519565,-0.13159399,0.48237228,25.42542,14.329435)"/><path id="path5517" d="m 32.438524,36.246914 a 4.4636116,0.66291261 0 1 1 -8.927223,0 4.4636116,0.66291261 0 1 1 8.927223,0 z" transform="matrix(0.34895017,0.09519565,-0.13159399,0.48237228,36.590632,17.375371)" style="color:#000;fill:url(#radialGradient3406);fill-opacity:1;fill-rule:evenodd;stroke:none;stroke-width:3;marker:none;visibility:visible;display:inline;overflow:visible;enable-background:accumulate"/><path style="color:#000;fill:url(#radialGradient3404);fill-opacity:1;fill-rule:evenodd;stroke:none;stroke-width:3;marker:none;visibility:visible;display:inline;overflow:visible;enable-background:accumulate" id="path5535" d="m 38.095377,36.291107 a 1.4142135,1.4142135 0 1 1 -2.828427,0 1.4142135,1.4142135 0 1 1 2.828427,0 z" transform="matrix(0.9225469,-0.52708015,0.52708015,0.9225469,-16.968417,21.853665)"/></g><g style="display:none" id="g5545"><path style="color:#000;fill:url(#radialGradient3402);fill-opacity:1;fill-rule:evenodd;stroke:none;stroke-width:3;marker:none;visibility:visible;display:inline;overflow:visible;enable-background:accumulate" id="path5549" d="m 32.438524,36.246914 a 4.4636116,0.66291261 0 1 1 -8.927223,0 4.4636116,0.66291261 0 1 1 8.927223,0 z" transform="matrix(0.46292237,0.0342509,-0.07259367,0.9811489,34.687714,0.14460165)"/><path id="path5557" d="m 32.438524,36.246914 a 4.4636116,0.66291261 0 1 1 -8.927223,0 4.4636116,0.66291261 0 1 1 8.927223,0 z" transform="matrix(0.46292237,0.0342509,-0.07259367,0.9811489,16.674452,-1.1881714)" style="color:#000;fill:url(#radialGradient3400);fill-opacity:1;fill-rule:evenodd;stroke:none;stroke-width:3;marker:none;visibility:visible;display:inline;overflow:visible;enable-background:accumulate"/><path id="path5551" d="m 38.095377,36.291107 a 1.4142135,1.4142135 0 1 1 -2.828427,0 1.4142135,1.4142135 0 1 1 2.828427,0 z" transform="matrix(0.07839842,-1.0596036,0.59682975,0.0441585,11.393159,74.231046)" style="color:#000;fill:url(#radialGradient3398);fill-opacity:1;fill-rule:evenodd;stroke:none;stroke-width:3;marker:none;visibility:visible;display:inline;overflow:visible;enable-background:accumulate"/><path style="color:#000;fill:url(#radialGradient3396);fill-opacity:1;fill-rule:evenodd;stroke:none;stroke-width:3;marker:none;visibility:visible;display:inline;overflow:visible;enable-background:accumulate" id="path5585" d="m 38.095377,36.291107 a 1.4142135,1.4142135 0 1 1 -2.828427,0 1.4142135,1.4142135 0 1 1 2.828427,0 z" transform="matrix(0.07839842,-1.0596036,0.59682975,0.0441585,11.536121,72.298826)"/><path style="color:#000;fill:url(#radialGradient3394);fill-opacity:1;fill-rule:evenodd;stroke:none;stroke-width:3;marker:none;visibility:visible;display:inline;overflow:visible;enable-background:accumulate" id="path5535-0" d="m 38.095377,36.291107 a 1.4142135,1.4142135 0 1 1 -2.828427,0 1.4142135,1.4142135 0 1 1 2.828427,0 z" transform="matrix(0.9225469,-0.52708015,0.52708015,0.9225469,-16.968417,21.853665)"/></g><g id="g5603" style="display:none"><path style="color:#000;fill:url(#radialGradient3392);fill-opacity:1;fill-rule:evenodd;stroke:none;stroke-width:3;marker:none;visibility:visible;display:inline;overflow:visible;enable-background:accumulate" id="path5609" d="m 38.095377,36.291107 a 1.4142135,1.4142135 0 1 1 -2.828427,0 1.4142135,1.4142135 0 1 1 2.828427,0 z" transform="matrix(-0.09235104,-1.0584788,0.5961962,-0.05201742,17.949205,78.986624)"/><path id="path5611" d="m 38.095377,36.291107 a 1.4142135,1.4142135 0 1 1 -2.828427,0 1.4142135,1.4142135 0 1 1 2.828427,0 z" transform="matrix(-0.09235104,-1.0584788,0.5961962,-0.05201742,17.552639,74.441394)" style="color:#000;fill:url(#radialGradient3390);fill-opacity:1;fill-rule:evenodd;stroke:none;stroke-width:3;marker:none;visibility:visible;display:inline;overflow:visible;enable-background:accumulate"/><path id="path5605" d="m 32.438524,36.246914 a 4.4636116,0.66291261 0 1 1 -8.927223,0 4.4636116,0.66291261 0 1 1 8.927223,0 z" transform="matrix(0.49818099,-0.04216415,0.12138246,1.3507556,29.847692,-12.812394)" style="color:#000;fill:url(#radialGradient3388);fill-opacity:1;fill-rule:evenodd;stroke:none;stroke-width:3;marker:none;visibility:visible;display:inline;overflow:visible;enable-background:accumulate"/><path style="color:#000;fill:url(#radialGradient3386);fill-opacity:1;fill-rule:evenodd;stroke:none;stroke-width:3;marker:none;visibility:visible;display:inline;overflow:visible;enable-background:accumulate" id="path5619" d="m 32.438524,36.246914 a 4.4636116,0.66291261 0 1 1 -8.927223,0 4.4636116,0.66291261 0 1 1 8.927223,0 z" transform="matrix(0.49818099,-0.04216415,0.12138246,1.3507556,5.4796933,-10.74998)"/><path style="color:#000;fill:url(#radialGradient3384);fill-opacity:1;fill-rule:evenodd;stroke:none;stroke-width:3;marker:none;visibility:visible;display:inline;overflow:visible;enable-background:accumulate" id="path5535-6" d="m 38.095377,36.291107 a 1.4142135,1.4142135 0 1 1 -2.828427,0 1.4142135,1.4142135 0 1 1 2.828427,0 z" transform="matrix(0.9225469,-0.52708015,0.52708015,0.9225469,-16.968417,21.853665)"/></g><g style="display:none" id="g5655"><path id="path5657" d="m 38.095377,36.291107 a 1.4142135,1.4142135 0 1 1 -2.828427,0 1.4142135,1.4142135 0 1 1 2.828427,0 z" transform="matrix(-0.39498142,-1.3295106,0.7488569,-0.22247628,24.625259,97.263914)" style="color:#000;fill:url(#radialGradient3382);fill-opacity:1;fill-rule:evenodd;stroke:none;stroke-width:3;marker:none;visibility:visible;display:inline;overflow:visible;enable-background:accumulate"/><path style="color:#000;fill:url(#radialGradient3380);fill-opacity:1;fill-rule:evenodd;stroke:none;stroke-width:3;marker:none;visibility:visible;display:inline;overflow:visible;enable-background:accumulate" id="path5659" d="m 38.095377,36.291107 a 1.4142135,1.4142135 0 1 1 -2.828427,0 1.4142135,1.4142135 0 1 1 2.828427,0 z" transform="matrix(-0.39498142,-1.3295106,0.7488569,-0.22247628,21.997808,88.419894)"/><path style="opacity:.68994416;color:#000;fill:url(#radialGradient3378);fill-opacity:1;fill-rule:evenodd;stroke:none;stroke-width:3;marker:none;visibility:visible;display:inline;overflow:visible;enable-background:accumulate" id="path5661" d="m 32.438524,36.246914 a 4.4636116,0.66291261 0 1 1 -8.927223,0 4.4636116,0.66291261 0 1 1 8.927223,0 z" transform="matrix(0.67963105,-0.18907999,0.5768598,1.824567,12.699713,-29.469753)"/><path id="path5663" d="m 32.438524,36.246914 a 4.4636116,0.66291261 0 1 1 -8.927223,0 4.4636116,0.66291261 0 1 1 8.927223,0 z" transform="matrix(0.67963105,-0.18907999,0.5768598,1.824567,-20.543725,-20.221109)" style="opacity:.68994416;color:#000;fill:url(#radialGradient3376);fill-opacity:1;fill-rule:evenodd;stroke:none;stroke-width:3;marker:none;visibility:visible;display:inline;overflow:visible;enable-background:accumulate"/><path style="color:#000;fill:url(#radialGradient3374);fill-opacity:1;fill-rule:evenodd;stroke:none;stroke-width:3;marker:none;visibility:visible;display:inline;overflow:visible;enable-background:accumulate" id="path5535-7" d="m 38.095377,36.291107 a 1.4142135,1.4142135 0 1 1 -2.828427,0 1.4142135,1.4142135 0 1 1 2.828427,0 z" transform="matrix(0.9225469,-0.52708015,0.52708015,0.9225469,-16.968417,21.853665)"/></g><g id="g5691" style="display:inline"><path style="opacity:.55586596;color:#000;fill:url(#radialGradient3372);fill-opacity:1;fill-rule:evenodd;stroke:none;stroke-width:3;marker:none;visibility:visible;display:inline;overflow:visible;enable-background:accumulate" id="path5693" d="m 38.095377,36.291107 a 1.4142135,1.4142135 0 1 1 -2.828427,0 1.4142135,1.4142135 0 1 1 2.828427,0 z" transform="matrix(-0.72053025,-1.1850927,0.66751245,-0.40584412,41.864397,100.21771)"/><path id="path5695" d="m 38.095377,36.291107 a 1.4142135,1.4142135 0 1 1 -2.828427,0 1.4142135,1.4142135 0 1 1 2.828427,0 z" transform="matrix(-0.72053025,-1.1850927,0.66751245,-0.40584412,34.545843,88.180516)" style="opacity:.55586596;color:#000;fill:url(#radialGradient3370);fill-opacity:1;fill-rule:evenodd;stroke:none;stroke-width:3;marker:none;visibility:visible;display:inline;overflow:visible;enable-background:accumulate"/><path id="path5697" d="m 32.438524,36.246914 a 4.4636116,0.66291261 0 1 1 -8.927223,0 4.4636116,0.66291261 0 1 1 8.927223,0 z" transform="matrix(0.60907355,-0.35591992,1.0224826,1.6175109,0.98710032,-23.926159)" style="opacity:.37150843;color:#000;fill:url(#radialGradient3368);fill-opacity:1;fill-rule:evenodd;stroke:none;stroke-width:3;marker:none;visibility:visible;display:inline;overflow:visible;enable-background:accumulate"/><path style="opacity:.37150843;color:#000;fill:url(#radialGradient3366);fill-opacity:1;fill-rule:evenodd;stroke:none;stroke-width:3;marker:none;visibility:visible;display:inline;overflow:visible;enable-background:accumulate" id="path5699" d="m 32.438524,36.246914 a 4.4636116,0.66291261 0 1 1 -8.927223,0 4.4636116,0.66291261 0 1 1 8.927223,0 z" transform="matrix(0.60907355,-0.35591992,1.0224826,1.6175109,-37.188337,-1.4197472)"/><path style="opacity:.83798888;color:#000;fill:url(#radialGradient3364);fill-opacity:1;fill-rule:evenodd;stroke:none;stroke-width:3;marker:none;visibility:visible;display:inline;overflow:visible;enable-background:accumulate" id="path5535-5" d="m 38.095377,36.291107 a 1.4142135,1.4142135 0 1 1 -2.828427,0 1.4142135,1.4142135 0 1 1 2.828427,0 z" transform="matrix(0.7307153,-0.41748069,0.41748069,0.7307153,-5.9543229,24.795213)"/></g></svg>